<svg xmlns="http://www.w3.org/2000/svg" version="1.1" xmlns:xlink="http://www.w3.org/1999/xlink" xmlns:svgjs="http://svgjs.com/svgjs" width="512" height="512" x="0" y="0" viewBox="0 0 90 90" style="enable-background:new 0 0 512 512" xml:space="preserve" class=""><g><path xmlns="http://www.w3.org/2000/svg" d="m55.434 72.521c0 3.712-1.979 6.553-5.193 8.41-3.213 1.856-7.172 1.856-10.379 0-3.215-1.857-5.193-4.698-5.193-8.41" fill="#ffffff" data-original="#000000" class=""></path><path xmlns="http://www.w3.org/2000/svg" d="m45.049 7.708c2.832 0 5.113 1.746 5.113 4.431 0 1.69.059 2.951 1.121 3.274 9.031 2.727 14.822 9.119 14.822 17.42v13.952c0 6.392 2.615 7.686 5.906 10.131 4.766 3.535 3.678 10.896-1.791 10.891h-50.34c-5.469.005-6.557-7.356-1.791-10.891 3.287-2.445 5.906-3.739 5.906-10.131v-13.952c0-8.301 5.791-14.693 14.822-17.42 1.059-.323 1.121-1.584 1.121-3.274.001-2.685 2.283-4.431 5.111-4.431z" fill="#c5d6e4" data-original="#000000" class=""></path></g></svg>