<svg xmlns="http://www.w3.org/2000/svg" width="100%" height="100%" ><path d="m2.43866 19.91193c-1.06848 0-1.93732.8689-1.93732 1.93732 0 1.06848.86884 1.93738 1.93732 1.93738h2.83752l-1.32635 5.30542c-.12579.50232-.04822 1.02307.21808 1.46674.26624.44409.68909.7572 1.19049.88257.15417.03874.31311.05864.47156.05864.88965 0 1.66254-.60352 1.87817-1.46814l1.56134-6.24524h9.56805l-1.32635 5.30542c-.12579.50232-.04822 1.02307.21808 1.46674.26624.44409.68909.7572 1.19049.88257.15417.03875.31311.05865.47156.05865.88965 0 1.66254-.60352 1.87817-1.46814l1.56134-6.24524h6.73053c1.06848 0 1.93732-.8689 1.93732-1.93738 0-1.06842-.86884-1.93732-1.93732-1.93732h-5.76178l1.95551-7.82214h3.80627c1.06848 0 1.93732-.8689 1.93732-1.93738s-.86884-1.93732-1.93732-1.93732h-2.83752l1.32635-5.30542c.12579-.50232.04822-1.02307-.21808-1.46674-.26624-.44415-.68909-.75726-1.19-.88257-.50043-.12773-1.02209-.05107-1.46484.21376-.44507.2663-.75958.69104-.88538 1.19574l-1.56134 6.24524h-9.56805l1.32635-5.30542c.12579-.50232.04822-1.02307-.21808-1.46674-.26624-.44415-.68909-.75726-1.19-.88257-.50085-.12726-1.02118-.05017-1.46527.21375-.44464.2663-.75916.69104-.88495 1.19574l-1.56134 6.24524h-6.73053c-1.06848 0-1.93732.86884-1.93732 1.93732s.86884 1.93738 1.93732 1.93738h5.76178l-1.95551 7.82214zm9.75507-7.82215h9.56805l-1.95551 7.82214h-9.56805z" fill="#a9a9a9"></path></svg>